<svg width="40" height="40" viewBox="0 0 40 40" fill="none" xmlns="http://www.w3.org/2000/svg">
<rect width="40" height="40" rx="20" fill="#454987"/>
<path d="M11.0617 15.2446C11.1085 14.2226 11.2685 13.5635 11.4849 13.004L11.4878 12.9963C11.7023 12.427 12.0382 11.9112 12.4723 11.4849L12.4784 11.4789L12.4843 11.4728C12.911 11.0382 13.4269 10.7026 13.9958 10.4887L14.0056 10.4849C14.5638 10.2679 15.2217 10.1084 16.2445 10.0617M11.0617 15.2446C11.0125 16.3366 11 16.6751 11 19.5063C11 22.3381 11.0118 22.6758 11.0617 23.768M11.0617 15.2446L11.0617 15.5201M11.4887 26.0168C11.7026 26.5856 12.0382 27.1015 12.4728 27.5282L12.4789 27.5342L12.4849 27.5402C12.9112 27.9743 13.427 28.3103 13.9963 28.5247L14.0048 28.5279C14.5635 28.7446 15.2217 28.9041 16.2445 28.9509M11.4887 26.0168L11.4849 26.0069C11.2679 25.4487 11.1084 24.7909 11.0617 23.768M11.4887 26.0168L11.4759 25.9492M11.0617 23.768L11.0784 23.8562M11.0617 23.768L11.0617 23.4919M11.4759 25.9492L11.0784 23.8562M11.4759 25.9492C11.3071 25.5033 11.1333 24.881 11.0784 23.8562M11.4759 25.9492C11.4818 25.9649 11.4877 25.9803 11.4936 25.9955C11.7077 26.5726 12.0469 27.0952 12.4868 27.5256C12.9171 27.9655 13.4395 28.3046 14.0164 28.5187C14.4794 28.699 15.1318 28.8875 16.2443 28.9385C17.3671 28.9896 17.714 29 20.5063 29C23.2985 29 23.6457 28.9896 24.7685 28.9385C25.8825 28.8874 26.5341 28.6979 26.9954 28.519C27.5727 28.305 28.0953 27.9657 28.5257 27.5256C28.9655 27.0953 29.3046 26.573 29.5187 25.9961C29.699 25.5331 29.8875 24.8808 29.9385 23.7682C29.9896 22.6454 30 22.2978 30 19.5063C30 16.7147 29.9896 16.3668 29.9385 15.244C29.8871 14.1243 29.6959 13.4717 29.5162 13.0099C29.2811 12.4032 28.9831 11.9444 28.525 11.4863C28.0678 11.03 27.6102 10.7318 27.0031 10.4965C26.5396 10.3154 25.8866 10.1253 24.7685 10.0741C24.6712 10.0696 24.5798 10.0655 24.4921 10.0617M11.0784 23.8562C11.0769 23.8273 11.0754 23.7981 11.0741 23.7685C11.0696 23.6712 11.0655 23.5797 11.0617 23.4919M16.2445 10.0617C17.3367 10.0118 17.6751 10 20.5063 10C23.3374 10 23.6757 10.0125 24.7676 10.0617M16.2445 10.0617L16.5206 10.0617M24.7676 10.0617L24.4921 10.0617M24.7676 10.0617C25.7898 10.1084 26.449 10.2684 27.0085 10.4849L27.0162 10.4878C27.5856 10.7023 28.1013 11.0382 28.5276 11.4723L28.5336 11.4783L28.5396 11.4842C28.9737 11.9106 29.3096 12.4265 29.5239 12.996L29.5276 13.0056C29.7447 13.5638 29.9041 14.2217 29.9509 15.2445M16.5206 10.0617L24.4921 10.0617M16.5206 10.0617C17.4455 10.0212 17.9567 10.0125 20.5063 10.0125C23.0561 10.0125 23.5671 10.0212 24.4921 10.0617M16.5206 10.0617C16.4329 10.0655 16.3414 10.0696 16.244 10.0741C15.1301 10.1251 14.4785 10.3146 14.0171 10.4936C13.4377 10.7084 12.9133 11.0494 12.482 11.4919C12.0281 11.9476 11.7311 12.4042 11.4966 13.0094C11.3154 13.4728 11.1253 14.1261 11.0741 15.2443C11.0696 15.3414 11.0655 15.4326 11.0617 15.5201M29.9509 23.768C29.9041 24.7908 29.7447 25.449 29.528 26.0077L29.5247 26.0162C29.3103 26.5856 28.9743 27.1013 28.5403 27.5276L28.5342 27.5336L28.5282 27.5397C28.1015 27.9743 27.5856 28.3099 27.0168 28.5238L27.0069 28.5276C26.4487 28.7447 25.7909 28.9041 24.768 28.9509M11.0617 23.4919C11.0212 22.567 11.0125 22.0558 11.0125 19.5063C11.0125 16.9559 11.0212 16.4454 11.0617 15.5201M11.0617 23.4919L11.0617 15.5201M18.8155 23.5881C19.3516 23.8101 19.9261 23.9244 20.5063 23.9244C21.678 23.9244 22.8018 23.4589 23.6304 22.6304C24.4589 21.8018 24.9244 20.678 24.9244 19.5063C24.9244 18.3345 24.4589 17.2107 23.6304 16.3822C22.8018 15.5536 21.678 15.0881 20.5063 15.0881C19.9261 15.0881 19.3515 15.2024 18.8155 15.4244C18.2795 15.6465 17.7924 15.9719 17.3822 16.3822C16.9719 16.7924 16.6465 17.2795 16.4244 17.8155C16.2024 18.3515 16.0881 18.9261 16.0881 19.5063C16.0881 20.0865 16.2024 20.661 16.4244 21.197C16.6465 21.7331 16.9719 22.2201 17.3822 22.6304C17.7924 23.0406 18.2795 23.3661 18.8155 23.5881ZM17.3723 16.3723C18.2035 15.5411 19.3308 15.0742 20.5063 15.0742C21.6817 15.0742 22.809 15.5411 23.6402 16.3723C24.4714 17.2035 24.9383 18.3308 24.9383 19.5063C24.9383 20.6817 24.4714 21.809 23.6402 22.6402C22.809 23.4714 21.6817 23.9383 20.5063 23.9383C19.3308 23.9383 18.2035 23.4714 17.3723 22.6402C16.5411 21.809 16.0742 20.6817 16.0742 19.5063C16.0742 18.3308 16.5411 17.2035 17.3723 16.3723ZM27.434 14.0423C27.434 14.3787 27.3004 14.7014 27.0625 14.9393C26.8246 15.1772 26.5019 15.3108 26.1655 15.3108C25.829 15.3108 25.5064 15.1772 25.2685 14.9393C25.0306 14.7014 24.8969 14.3787 24.8969 14.0423C24.8969 13.7059 25.0306 13.3832 25.2685 13.1453C25.5064 12.9074 25.829 12.7737 26.1655 12.7737C26.5019 12.7737 26.8246 12.9074 27.0625 13.1453C27.3004 13.3832 27.434 13.7059 27.434 14.0423Z" stroke="white" stroke-width="0.75" stroke-linejoin="round"/>
</svg>
