<svg width="178" height="47" viewBox="0 0 178 47" fill="none" xmlns="http://www.w3.org/2000/svg">
<circle cx="23.3844" cy="23.3844" r="18.4615" fill="#2E315E"/>
<circle cx="44.3075" cy="23.3844" r="17.2308" stroke="#2E315E" stroke-width="2.46154"/>
<path d="M70.7164 18.9229L68.0564 9.12285H69.5544L71.5424 17.2849L73.8244 9.12285H75.3784L77.5904 17.3129L79.6064 9.12285H81.1044L78.4024 18.9229H76.7644L74.5664 11.1249L72.3124 18.9229H70.7164ZM84.921 19.0909C84.2584 19.0909 83.661 18.9369 83.129 18.6289C82.6064 18.3209 82.191 17.8915 81.883 17.3409C81.5844 16.7809 81.435 16.1369 81.435 15.4089C81.435 14.6622 81.589 14.0135 81.897 13.4629C82.205 12.9029 82.625 12.4689 83.157 12.1609C83.689 11.8529 84.2864 11.6989 84.949 11.6989C85.621 11.6989 86.2184 11.8529 86.741 12.1609C87.2637 12.4689 87.6744 12.8982 87.973 13.4489C88.281 13.9995 88.435 14.6482 88.435 15.3949C88.435 16.1415 88.281 16.7902 87.973 17.3409C87.6744 17.8915 87.259 18.3209 86.727 18.6289C86.195 18.9369 85.593 19.0909 84.921 19.0909ZM84.921 17.8869C85.3037 17.8869 85.649 17.7935 85.957 17.6069C86.2744 17.4202 86.5264 17.1449 86.713 16.7809C86.909 16.4075 87.007 15.9455 87.007 15.3949C87.007 14.8442 86.9137 14.3869 86.727 14.0229C86.5404 13.6495 86.2884 13.3695 85.971 13.1829C85.663 12.9962 85.3224 12.9029 84.949 12.9029C84.5757 12.9029 84.2304 12.9962 83.913 13.1829C83.5957 13.3695 83.339 13.6495 83.143 14.0229C82.9564 14.3869 82.863 14.8442 82.863 15.3949C82.863 15.9455 82.9564 16.4075 83.143 16.7809C83.339 17.1449 83.591 17.4202 83.899 17.6069C84.2164 17.7935 84.557 17.8869 84.921 17.8869ZM90.0819 18.9229V11.8669H91.3419L91.4679 13.1969C91.6265 12.8795 91.8319 12.6135 92.0839 12.3989C92.3359 12.1749 92.6299 12.0022 92.9659 11.8809C93.3112 11.7595 93.7032 11.6989 94.1419 11.6989V13.1829H93.6379C93.3485 13.1829 93.0732 13.2202 92.8119 13.2949C92.5505 13.3602 92.3172 13.4769 92.1119 13.6449C91.9159 13.8129 91.7619 14.0415 91.6499 14.3309C91.5379 14.6202 91.4819 14.9795 91.4819 15.4089V18.9229H90.0819ZM95.4276 18.9229V8.84285H96.8276V18.9229H95.4276ZM101.886 19.0909C101.214 19.0909 100.621 18.9322 100.108 18.6149C99.5945 18.2882 99.1932 17.8495 98.9039 17.2989C98.6239 16.7389 98.4839 16.1042 98.4839 15.3949C98.4839 14.6762 98.6239 14.0415 98.9039 13.4909C99.1932 12.9402 99.5945 12.5062 100.108 12.1889C100.631 11.8622 101.228 11.6989 101.9 11.6989C102.451 11.6989 102.936 11.8109 103.356 12.0349C103.776 12.2495 104.103 12.5575 104.336 12.9589V8.84285H105.736V18.9229H104.476L104.336 17.8309C104.196 18.0455 104.014 18.2509 103.79 18.4469C103.566 18.6335 103.295 18.7875 102.978 18.9089C102.661 19.0302 102.297 19.0909 101.886 19.0909ZM102.11 17.8729C102.549 17.8729 102.936 17.7702 103.272 17.5649C103.608 17.3595 103.865 17.0702 104.042 16.6969C104.229 16.3235 104.322 15.8895 104.322 15.3949C104.322 14.9002 104.229 14.4709 104.042 14.1069C103.865 13.7335 103.608 13.4442 103.272 13.2389C102.936 13.0242 102.549 12.9169 102.11 12.9169C101.69 12.9169 101.312 13.0242 100.976 13.2389C100.64 13.4442 100.379 13.7335 100.192 14.1069C100.005 14.4709 99.9119 14.9002 99.9119 15.3949C99.9119 15.8895 100.005 16.3235 100.192 16.6969C100.379 17.0702 100.64 17.3595 100.976 17.5649C101.312 17.7702 101.69 17.8729 102.11 17.8729ZM110.38 19.0909C109.783 19.0909 109.26 18.9929 108.812 18.7969C108.364 18.6009 108.01 18.3255 107.748 17.9709C107.487 17.6162 107.328 17.2009 107.272 16.7249H108.7C108.747 16.9489 108.836 17.1542 108.966 17.3409C109.106 17.5275 109.293 17.6769 109.526 17.7889C109.769 17.9009 110.054 17.9569 110.38 17.9569C110.688 17.9569 110.94 17.9149 111.136 17.8309C111.342 17.7375 111.491 17.6162 111.584 17.4669C111.678 17.3082 111.724 17.1402 111.724 16.9629C111.724 16.7015 111.659 16.5055 111.528 16.3749C111.407 16.2349 111.22 16.1275 110.968 16.0529C110.726 15.9689 110.432 15.8942 110.086 15.8289C109.76 15.7729 109.442 15.6982 109.134 15.6049C108.836 15.5022 108.565 15.3762 108.322 15.2269C108.089 15.0775 107.902 14.8909 107.762 14.6669C107.622 14.4335 107.552 14.1489 107.552 13.8129C107.552 13.4115 107.66 13.0522 107.874 12.7349C108.089 12.4082 108.392 12.1562 108.784 11.9789C109.186 11.7922 109.657 11.6989 110.198 11.6989C110.982 11.6989 111.612 11.8855 112.088 12.2589C112.564 12.6322 112.844 13.1595 112.928 13.8409H111.57C111.533 13.5235 111.393 13.2809 111.15 13.1129C110.908 12.9355 110.586 12.8469 110.184 12.8469C109.783 12.8469 109.475 12.9262 109.26 13.0849C109.046 13.2435 108.938 13.4535 108.938 13.7149C108.938 13.8829 108.999 14.0322 109.12 14.1629C109.242 14.2935 109.419 14.4055 109.652 14.4989C109.895 14.5829 110.189 14.6622 110.534 14.7369C111.029 14.8302 111.472 14.9469 111.864 15.0869C112.256 15.2269 112.569 15.4322 112.802 15.7029C113.036 15.9735 113.152 16.3609 113.152 16.8649C113.162 17.3035 113.05 17.6909 112.816 18.0269C112.592 18.3629 112.27 18.6242 111.85 18.8109C111.44 18.9975 110.95 19.0909 110.38 19.0909ZM121.645 19.0909C120.963 19.0909 120.357 18.9369 119.825 18.6289C119.293 18.3115 118.873 17.8775 118.565 17.3269C118.266 16.7762 118.117 16.1369 118.117 15.4089C118.117 14.6715 118.266 14.0275 118.565 13.4769C118.873 12.9169 119.293 12.4829 119.825 12.1749C120.357 11.8575 120.963 11.6989 121.645 11.6989C122.503 11.6989 123.222 11.9229 123.801 12.3709C124.379 12.8189 124.748 13.4255 124.907 14.1909H123.451C123.357 13.7802 123.143 13.4629 122.807 13.2389C122.48 13.0149 122.088 12.9029 121.631 12.9029C121.257 12.9029 120.912 13.0009 120.595 13.1969C120.277 13.3835 120.021 13.6635 119.825 14.0369C119.638 14.4009 119.545 14.8535 119.545 15.3949C119.545 15.7962 119.601 16.1555 119.713 16.4729C119.825 16.7809 119.974 17.0422 120.161 17.2569C120.357 17.4715 120.581 17.6349 120.833 17.7469C121.085 17.8495 121.351 17.9009 121.631 17.9009C121.939 17.9009 122.214 17.8542 122.457 17.7609C122.709 17.6582 122.919 17.5089 123.087 17.3129C123.264 17.1169 123.385 16.8835 123.451 16.6129H124.907C124.748 17.3595 124.379 17.9615 123.801 18.4189C123.222 18.8669 122.503 19.0909 121.645 19.0909ZM129.765 19.0909C129.102 19.0909 128.505 18.9369 127.973 18.6289C127.45 18.3209 127.035 17.8915 126.727 17.3409C126.428 16.7809 126.279 16.1369 126.279 15.4089C126.279 14.6622 126.433 14.0135 126.741 13.4629C127.049 12.9029 127.469 12.4689 128.001 12.1609C128.533 11.8529 129.13 11.6989 129.793 11.6989C130.465 11.6989 131.062 11.8529 131.585 12.1609C132.107 12.4689 132.518 12.8982 132.817 13.4489C133.125 13.9995 133.279 14.6482 133.279 15.3949C133.279 16.1415 133.125 16.7902 132.817 17.3409C132.518 17.8915 132.103 18.3209 131.571 18.6289C131.039 18.9369 130.437 19.0909 129.765 19.0909ZM129.765 17.8869C130.147 17.8869 130.493 17.7935 130.801 17.6069C131.118 17.4202 131.37 17.1449 131.557 16.7809C131.753 16.4075 131.851 15.9455 131.851 15.3949C131.851 14.8442 131.757 14.3869 131.571 14.0229C131.384 13.6495 131.132 13.3695 130.815 13.1829C130.507 12.9962 130.166 12.9029 129.793 12.9029C129.419 12.9029 129.074 12.9962 128.757 13.1829C128.439 13.3695 128.183 13.6495 127.987 14.0229C127.8 14.3869 127.707 14.8442 127.707 15.3949C127.707 15.9455 127.8 16.4075 127.987 16.7809C128.183 17.1449 128.435 17.4202 128.743 17.6069C129.06 17.7935 129.401 17.8869 129.765 17.8869ZM134.926 18.9229V8.84285H136.326V18.9229H134.926ZM138.248 18.9229V8.84285H139.648V18.9229H138.248ZM141.668 18.9229V11.8669H143.068V18.9229H141.668ZM142.382 10.5369C142.111 10.5369 141.887 10.4529 141.71 10.2849C141.542 10.1169 141.458 9.90218 141.458 9.64085C141.458 9.38885 141.542 9.18352 141.71 9.02485C141.887 8.85685 142.111 8.77285 142.382 8.77285C142.643 8.77285 142.863 8.85685 143.04 9.02485C143.217 9.18352 143.306 9.38885 143.306 9.64085C143.306 9.90218 143.217 10.1169 143.04 10.2849C142.863 10.4529 142.643 10.5369 142.382 10.5369ZM148.206 19.0909C147.534 19.0909 146.941 18.9322 146.428 18.6149C145.915 18.2882 145.513 17.8495 145.224 17.2989C144.944 16.7389 144.804 16.1042 144.804 15.3949C144.804 14.6762 144.944 14.0415 145.224 13.4909C145.513 12.9402 145.915 12.5062 146.428 12.1889C146.951 11.8622 147.548 11.6989 148.22 11.6989C148.771 11.6989 149.256 11.8109 149.676 12.0349C150.096 12.2495 150.423 12.5575 150.656 12.9589V8.84285H152.056V18.9229H150.796L150.656 17.8309C150.516 18.0455 150.334 18.2509 150.11 18.4469C149.886 18.6335 149.615 18.7875 149.298 18.9089C148.981 19.0302 148.617 19.0909 148.206 19.0909ZM148.43 17.8729C148.869 17.8729 149.256 17.7702 149.592 17.5649C149.928 17.3595 150.185 17.0702 150.362 16.6969C150.549 16.3235 150.642 15.8895 150.642 15.3949C150.642 14.9002 150.549 14.4709 150.362 14.1069C150.185 13.7335 149.928 13.4442 149.592 13.2389C149.256 13.0242 148.869 12.9169 148.43 12.9169C148.01 12.9169 147.632 13.0242 147.296 13.2389C146.96 13.4442 146.699 13.7335 146.512 14.1069C146.325 14.4709 146.232 14.9002 146.232 15.3949C146.232 15.8895 146.325 16.3235 146.512 16.6969C146.699 17.0702 146.96 17.3595 147.296 17.5649C147.632 17.7702 148.01 17.8729 148.43 17.8729ZM157.163 19.0909C156.491 19.0909 155.893 18.9369 155.371 18.6289C154.848 18.3209 154.437 17.8915 154.139 17.3409C153.849 16.7902 153.705 16.1509 153.705 15.4229C153.705 14.6762 153.849 14.0275 154.139 13.4769C154.437 12.9169 154.848 12.4829 155.371 12.1749C155.893 11.8575 156.5 11.6989 157.191 11.6989C157.881 11.6989 158.474 11.8529 158.969 12.1609C159.463 12.4689 159.846 12.8795 160.117 13.3929C160.387 13.8969 160.523 14.4569 160.523 15.0729C160.523 15.1662 160.518 15.2689 160.509 15.3809C160.509 15.4835 160.504 15.6002 160.495 15.7309H154.727V14.7369H159.123C159.095 14.1489 158.899 13.6915 158.535 13.3649C158.171 13.0289 157.718 12.8609 157.177 12.8609C156.794 12.8609 156.444 12.9495 156.127 13.1269C155.809 13.2949 155.553 13.5469 155.357 13.8829C155.17 14.2095 155.077 14.6249 155.077 15.1289V15.5209C155.077 16.0435 155.17 16.4869 155.357 16.8509C155.553 17.2055 155.809 17.4762 156.127 17.6629C156.444 17.8402 156.789 17.9289 157.163 17.9289C157.611 17.9289 157.979 17.8309 158.269 17.6349C158.558 17.4389 158.773 17.1729 158.913 16.8369H160.313C160.191 17.2662 159.986 17.6535 159.697 17.9989C159.407 18.3349 159.048 18.6009 158.619 18.7969C158.199 18.9929 157.713 19.0909 157.163 19.0909ZM68.6444 36.9229V29.8669H69.9044L70.0024 30.8609C70.2264 30.4969 70.525 30.2122 70.8984 30.0069C71.2717 29.8015 71.6917 29.6989 72.1584 29.6989C72.513 29.6989 72.835 29.7502 73.1244 29.8529C73.4137 29.9462 73.6704 30.0909 73.8944 30.2869C74.1184 30.4829 74.3004 30.7255 74.4404 31.0149C74.6924 30.6042 75.0284 30.2822 75.4484 30.0489C75.8777 29.8155 76.3304 29.6989 76.8064 29.6989C77.3757 29.6989 77.8657 29.8155 78.2764 30.0489C78.687 30.2729 78.9997 30.6135 79.2144 31.0709C79.429 31.5189 79.5364 32.0789 79.5364 32.7509V36.9229H78.1504V32.8909C78.1504 32.2375 78.0151 31.7429 77.7444 31.4069C77.4831 31.0709 77.0957 30.9029 76.5824 30.9029C76.2371 30.9029 75.929 30.9915 75.6584 31.1689C75.3877 31.3462 75.173 31.6029 75.0144 31.9389C74.865 32.2749 74.7904 32.6855 74.7904 33.1709V36.9229H73.3904V32.8909C73.3904 32.2375 73.255 31.7429 72.9844 31.4069C72.723 31.0709 72.3357 30.9029 71.8224 30.9029C71.4957 30.9029 71.197 30.9915 70.9264 31.1689C70.6557 31.3462 70.441 31.6029 70.2824 31.9389C70.1237 32.2749 70.0444 32.6855 70.0444 33.1709V36.9229H68.6444ZM81.4436 36.9229V29.8669H82.8436V36.9229H81.4436ZM82.1576 28.5369C81.8869 28.5369 81.6629 28.4529 81.4856 28.2849C81.3176 28.1169 81.2336 27.9022 81.2336 27.6409C81.2336 27.3889 81.3176 27.1835 81.4856 27.0249C81.6629 26.8569 81.8869 26.7729 82.1576 26.7729C82.4189 26.7729 82.6382 26.8569 82.8156 27.0249C82.9929 27.1835 83.0816 27.3889 83.0816 27.6409C83.0816 27.9022 82.9929 28.1169 82.8156 28.2849C82.6382 28.4529 82.4189 28.5369 82.1576 28.5369ZM84.8456 36.9229V29.8669H86.1056L86.1896 31.0709C86.4136 30.6509 86.7309 30.3195 87.1416 30.0769C87.5522 29.8249 88.0236 29.6989 88.5556 29.6989C89.1156 29.6989 89.5962 29.8109 89.9976 30.0349C90.3989 30.2589 90.7116 30.5995 90.9356 31.0569C91.1596 31.5049 91.2716 32.0695 91.2716 32.7509V36.9229H89.8716V32.8909C89.8716 32.2375 89.7269 31.7429 89.4376 31.4069C89.1482 31.0709 88.7282 30.9029 88.1776 30.9029C87.8136 30.9029 87.4869 30.9915 87.1976 31.1689C86.9082 31.3369 86.6749 31.5889 86.4976 31.9249C86.3296 32.2609 86.2456 32.6715 86.2456 33.1569V36.9229H84.8456ZM93.1604 36.9229V29.8669H94.5604V36.9229H93.1604ZM93.8744 28.5369C93.6037 28.5369 93.3797 28.4529 93.2024 28.2849C93.0344 28.1169 92.9504 27.9022 92.9504 27.6409C92.9504 27.3889 93.0344 27.1835 93.2024 27.0249C93.3797 26.8569 93.6037 26.7729 93.8744 26.7729C94.1357 26.7729 94.355 26.8569 94.5324 27.0249C94.7097 27.1835 94.7984 27.3889 94.7984 27.6409C94.7984 27.9022 94.7097 28.1169 94.5324 28.2849C94.355 28.4529 94.1357 28.5369 93.8744 28.5369ZM99.2924 37.0909C98.695 37.0909 98.1724 36.9929 97.7244 36.7969C97.2764 36.6009 96.9217 36.3255 96.6604 35.9709C96.399 35.6162 96.2404 35.2009 96.1844 34.7249H97.6124C97.659 34.9489 97.7477 35.1542 97.8784 35.3409C98.0184 35.5275 98.205 35.6769 98.4384 35.7889C98.681 35.9009 98.9657 35.9569 99.2924 35.9569C99.6004 35.9569 99.8524 35.9149 100.048 35.8309C100.254 35.7375 100.403 35.6162 100.496 35.4669C100.59 35.3082 100.636 35.1402 100.636 34.9629C100.636 34.7015 100.571 34.5055 100.44 34.3749C100.319 34.2349 100.132 34.1275 99.8804 34.0529C99.6377 33.9689 99.3437 33.8942 98.9984 33.8289C98.6717 33.7729 98.3544 33.6982 98.0464 33.6049C97.7477 33.5022 97.477 33.3762 97.2344 33.2269C97.001 33.0775 96.8144 32.8909 96.6744 32.6669C96.5344 32.4335 96.4644 32.1489 96.4644 31.8129C96.4644 31.4115 96.5717 31.0522 96.7864 30.7349C97.001 30.4082 97.3044 30.1562 97.6964 29.9789C98.0977 29.7922 98.569 29.6989 99.1104 29.6989C99.8944 29.6989 100.524 29.8855 101 30.2589C101.476 30.6322 101.756 31.1595 101.84 31.8409H100.482C100.445 31.5235 100.305 31.2809 100.062 31.1129C99.8197 30.9355 99.4977 30.8469 99.0964 30.8469C98.695 30.8469 98.387 30.9262 98.1724 31.0849C97.9577 31.2435 97.8504 31.4535 97.8504 31.7149C97.8504 31.8829 97.911 32.0322 98.0324 32.1629C98.1537 32.2935 98.331 32.4055 98.5644 32.4989C98.807 32.5829 99.101 32.6622 99.4464 32.7369C99.941 32.8302 100.384 32.9469 100.776 33.0869C101.168 33.2269 101.481 33.4322 101.714 33.7029C101.948 33.9735 102.064 34.3609 102.064 34.8649C102.074 35.3035 101.962 35.6909 101.728 36.0269C101.504 36.3629 101.182 36.6242 100.762 36.8109C100.352 36.9975 99.8617 37.0909 99.2924 37.0909ZM106.338 36.9229C105.89 36.9229 105.502 36.8529 105.176 36.7129C104.849 36.5729 104.597 36.3395 104.42 36.0129C104.242 35.6862 104.154 35.2429 104.154 34.6829V31.0569H102.936V29.8669H104.154L104.322 28.1029H105.554V29.8669H107.556V31.0569H105.554V34.6969C105.554 35.0982 105.638 35.3735 105.806 35.5229C105.974 35.6629 106.263 35.7329 106.674 35.7329H107.486V36.9229H106.338ZM109.099 36.9229V29.8669H110.359L110.485 31.1969C110.644 30.8795 110.849 30.6135 111.101 30.3989C111.353 30.1749 111.647 30.0022 111.983 29.8809C112.329 29.7595 112.721 29.6989 113.159 29.6989V31.1829H112.655C112.366 31.1829 112.091 31.2202 111.829 31.2949C111.568 31.3602 111.335 31.4769 111.129 31.6449C110.933 31.8129 110.779 32.0415 110.667 32.3309C110.555 32.6202 110.499 32.9795 110.499 33.4089V36.9229H109.099ZM114.543 36.9229V29.8669H115.943V36.9229H114.543ZM115.257 28.5369C114.986 28.5369 114.762 28.4529 114.585 28.2849C114.417 28.1169 114.333 27.9022 114.333 27.6409C114.333 27.3889 114.417 27.1835 114.585 27.0249C114.762 26.8569 114.986 26.7729 115.257 26.7729C115.518 26.7729 115.738 26.8569 115.915 27.0249C116.092 27.1835 116.181 27.3889 116.181 27.6409C116.181 27.9022 116.092 28.1169 115.915 28.2849C115.738 28.4529 115.518 28.5369 115.257 28.5369ZM121.137 37.0909C120.465 37.0909 119.868 36.9369 119.345 36.6289C118.822 36.3209 118.412 35.8915 118.113 35.3409C117.824 34.7902 117.679 34.1509 117.679 33.4229C117.679 32.6762 117.824 32.0275 118.113 31.4769C118.412 30.9169 118.822 30.4829 119.345 30.1749C119.868 29.8575 120.474 29.6989 121.165 29.6989C121.856 29.6989 122.448 29.8529 122.943 30.1609C123.438 30.4689 123.82 30.8795 124.091 31.3929C124.362 31.8969 124.497 32.4569 124.497 33.0729C124.497 33.1662 124.492 33.2689 124.483 33.3809C124.483 33.4835 124.478 33.6002 124.469 33.7309H118.701V32.7369H123.097C123.069 32.1489 122.873 31.6915 122.509 31.3649C122.145 31.0289 121.692 30.8609 121.151 30.8609C120.768 30.8609 120.418 30.9495 120.101 31.1269C119.784 31.2949 119.527 31.5469 119.331 31.8829C119.144 32.2095 119.051 32.6249 119.051 33.1289V33.5209C119.051 34.0435 119.144 34.4869 119.331 34.8509C119.527 35.2055 119.784 35.4762 120.101 35.6629C120.418 35.8402 120.764 35.9289 121.137 35.9289C121.585 35.9289 121.954 35.8309 122.243 35.6349C122.532 35.4389 122.747 35.1729 122.887 34.8369H124.287C124.166 35.2662 123.96 35.6535 123.671 35.9989C123.382 36.3349 123.022 36.6009 122.593 36.7969C122.173 36.9929 121.688 37.0909 121.137 37.0909ZM128.783 37.0909C128.185 37.0909 127.663 36.9929 127.215 36.7969C126.767 36.6009 126.412 36.3255 126.151 35.9709C125.889 35.6162 125.731 35.2009 125.675 34.7249H127.103C127.149 34.9489 127.238 35.1542 127.369 35.3409C127.509 35.5275 127.695 35.6769 127.929 35.7889C128.171 35.9009 128.456 35.9569 128.783 35.9569C129.091 35.9569 129.343 35.9149 129.539 35.8309C129.744 35.7375 129.893 35.6162 129.987 35.4669C130.08 35.3082 130.127 35.1402 130.127 34.9629C130.127 34.7015 130.061 34.5055 129.931 34.3749C129.809 34.2349 129.623 34.1275 129.371 34.0529C129.128 33.9689 128.834 33.8942 128.489 33.8289C128.162 33.7729 127.845 33.6982 127.537 33.6049C127.238 33.5022 126.967 33.3762 126.725 33.2269C126.491 33.0775 126.305 32.8909 126.165 32.6669C126.025 32.4335 125.955 32.1489 125.955 31.8129C125.955 31.4115 126.062 31.0522 126.277 30.7349C126.491 30.4082 126.795 30.1562 127.187 29.9789C127.588 29.7922 128.059 29.6989 128.601 29.6989C129.385 29.6989 130.015 29.8855 130.491 30.2589C130.967 30.6322 131.247 31.1595 131.331 31.8409H129.973C129.935 31.5235 129.795 31.2809 129.553 31.1129C129.31 30.9355 128.988 30.8469 128.587 30.8469C128.185 30.8469 127.877 30.9262 127.663 31.0849C127.448 31.2435 127.341 31.4535 127.341 31.7149C127.341 31.8829 127.401 32.0322 127.523 32.1629C127.644 32.2935 127.821 32.4055 128.055 32.4989C128.297 32.5829 128.591 32.6622 128.937 32.7369C129.431 32.8302 129.875 32.9469 130.267 33.0869C130.659 33.2269 130.971 33.4322 131.205 33.7029C131.438 33.9735 131.555 34.3609 131.555 34.8649C131.564 35.3035 131.452 35.6909 131.219 36.0269C130.995 36.3629 130.673 36.6242 130.253 36.8109C129.842 36.9975 129.352 37.0909 128.783 37.0909Z" fill="#2E315E"/>
</svg>
